<svg xmlns="http://www.w3.org/2000/svg" xmlns:xlink="http://www.w3.org/1999/xlink" width="49.25" height="49.25" viewBox="0 0 49.25 49.25">
  <defs>
    <linearGradient id="linear-gradient" x1="0.5" x2="0" y2="2.402" gradientUnits="objectBoundingBox">
      <stop offset="0" stop-color="#ff8c00"/>
      <stop offset="1" stop-color="#cb403d"/>
    </linearGradient>
    <linearGradient id="linear-gradient-2" x1="0.348" y1="0.349" x2="1.09" y2="1.512" xlink:href="#linear-gradient"/>
    <filter id="Polygon_9" x="0" y="0" width="31.799" height="31.798" filterUnits="userSpaceOnUse">
      <feOffset dy="2" input="SourceAlpha"/>
      <feGaussianBlur stdDeviation="3" result="blur"/>
      <feFlood flood-opacity="0.161"/>
      <feComposite operator="in" in2="blur"/>
      <feComposite in="SourceGraphic"/>
    </filter>
    <filter id="Polygon_10" x="17.451" y="17.452" width="31.799" height="31.798" filterUnits="userSpaceOnUse">
      <feOffset dy="2" input="SourceAlpha"/>
      <feGaussianBlur stdDeviation="3" result="blur-2"/>
      <feFlood flood-opacity="0.161"/>
      <feComposite operator="in" in2="blur-2"/>
      <feComposite in="SourceGraphic"/>
    </filter>
    <filter id="Polygon_11" x="17.451" y="0" width="31.799" height="31.799" filterUnits="userSpaceOnUse">
      <feOffset dy="2" input="SourceAlpha"/>
      <feGaussianBlur stdDeviation="3" result="blur-3"/>
      <feFlood flood-opacity="0.161"/>
      <feComposite operator="in" in2="blur-3"/>
      <feComposite in="SourceGraphic"/>
    </filter>
    <filter id="Polygon_12" x="0" y="17.451" width="31.799" height="31.799" filterUnits="userSpaceOnUse">
      <feOffset dy="2" input="SourceAlpha"/>
      <feGaussianBlur stdDeviation="3" result="blur-4"/>
      <feFlood flood-opacity="0.161"/>
      <feComposite operator="in" in2="blur-4"/>
      <feComposite in="SourceGraphic"/>
    </filter>
  </defs>
  <g id="Group_266" data-name="Group 266" transform="translate(9 7)">
    <rect id="Rectangle_52" data-name="Rectangle 52" width="1.722" height="17.219" transform="translate(8.891 9.923) rotate(-45)" fill="url(#linear-gradient)"/>
    <g transform="matrix(1, 0, 0, 1, -9, -7)" filter="url(#Polygon_9)">
      <path id="Polygon_9-2" data-name="Polygon 9" d="M4.294,1.549a1,1,0,0,1,1.743,0L9.493,7.693a1,1,0,0,1-.872,1.49H1.71a1,1,0,0,1-.872-1.49Z" transform="translate(9 14.31) rotate(-45)" fill="url(#linear-gradient-2)"/>
    </g>
    <g transform="matrix(1, 0, 0, 1, -9, -7)" filter="url(#Polygon_10)">
      <path id="Polygon_10-2" data-name="Polygon 10" d="M4.294,1.549a1,1,0,0,1,1.743,0L9.493,7.693a1,1,0,0,1-.872,1.49H1.71a1,1,0,0,1-.872-1.49Z" transform="translate(40.25 30.94) rotate(135)" fill="url(#linear-gradient-2)"/>
    </g>
    <rect id="Rectangle_53" data-name="Rectangle 53" width="1.722" height="17.218" transform="translate(21.327 8.89) rotate(45)" fill="url(#linear-gradient)"/>
    <g transform="matrix(1, 0, 0, 1, -9, -7)" filter="url(#Polygon_11)">
      <path id="Polygon_11-2" data-name="Polygon 11" d="M4.294,1.549a1,1,0,0,1,1.743,0L9.493,7.693a1,1,0,0,1-.872,1.49H1.71a1,1,0,0,1-.872-1.49Z" transform="translate(32.94 7) rotate(45)" fill="url(#linear-gradient-2)"/>
    </g>
    <g transform="matrix(1, 0, 0, 1, -9, -7)" filter="url(#Polygon_12)">
      <path id="Polygon_12-2" data-name="Polygon 12" d="M4.294,1.549a1,1,0,0,1,1.743,0L9.493,7.693a1,1,0,0,1-.872,1.49H1.71a1,1,0,0,1-.872-1.49Z" transform="translate(16.31 38.25) rotate(-135)" fill="url(#linear-gradient-2)"/>
    </g>
  </g>
</svg>
