<svg xmlns="http://www.w3.org/2000/svg" width="31" height="31" viewBox="0 0 31 31">
  <g id="Group_274" data-name="Group 274" transform="translate(-850 -3635)">
    <g id="Rectangle_39" data-name="Rectangle 39" transform="translate(850 3635)" fill="#ff8c00" stroke="#ff8c00" stroke-width="2">
      <rect width="31" height="31" rx="6" stroke="none"/>
      <rect x="1" y="1" width="29" height="29" rx="5" fill="none"/>
    </g>
    <g id="Ellipse_4" data-name="Ellipse 4" transform="translate(856 3641)" fill="none" stroke="#000" stroke-width="3">
      <circle cx="9.5" cy="9.5" r="9.5" stroke="none"/>
      <circle cx="9.5" cy="9.5" r="8" fill="none"/>
    </g>
    <g id="Path_133" data-name="Path 133" transform="translate(875.254 3638.814)">
      <path d="M 2.181412696838379 3.862822771072388 C 1.254282712936401 3.862822771072388 0.5000026822090149 3.108542680740356 0.5000026822090149 2.181412696838379 C 0.5000026822090149 1.254282712936401 1.254282712936401 0.5000026822090149 2.181412696838379 0.5000026822090149 C 3.108542680740356 0.5000026822090149 3.862822771072388 1.254282712936401 3.862822771072388 2.181412696838379 C 3.862822771072388 3.108542680740356 3.108542680740356 3.862822771072388 2.181412696838379 3.862822771072388 Z" stroke="none"/>
      <path d="M 2.181412696838379 1.00000262260437 C 1.529982805252075 1.00000262260437 1.00000262260437 1.529982805252075 1.00000262260437 2.181412696838379 C 1.00000262260437 2.832842826843262 1.529982805252075 3.362822532653809 2.181412696838379 3.362822532653809 C 2.832842826843262 3.362822532653809 3.362822532653809 2.832842826843262 3.362822532653809 2.181412696838379 C 3.362822532653809 1.529982805252075 2.832842826843262 1.00000262260437 2.181412696838379 1.00000262260437 M 2.181412696838379 2.86102294921875e-06 C 3.386172771453857 2.86102294921875e-06 4.362822532653809 0.9766526222229004 4.362822532653809 2.181412696838379 C 4.362822532653809 3.386172771453857 3.386172771453857 4.362822532653809 2.181412696838379 4.362822532653809 C 0.9766526222229004 4.362822532653809 2.86102294921875e-06 3.386172771453857 2.86102294921875e-06 2.181412696838379 C 2.86102294921875e-06 0.9766526222229004 0.9766526222229004 2.86102294921875e-06 2.181412696838379 2.86102294921875e-06 Z" stroke="none"/>
    </g>
  </g>
</svg>
