<svg xmlns="http://www.w3.org/2000/svg" width="34.447" height="29.704" viewBox="0 0 34.447 29.704">
  <path id="Path_132" data-name="Path 132" d="M-2794.5,16178.5a27.809,27.809,0,0,0,3.949,2.137,16.711,16.711,0,0,0,3.08.994,25.181,25.181,0,0,0,8.243-.148,17.394,17.394,0,0,0,12.529-8.141c3.128-4.744,3.9-14.2,3.9-14.2l2.751-2.793-2.751.361,2.751-3.762-4.206,1.762s-4.221-4.246-8.977-1.762-4.312,8.658-4.312,8.658a33.4,33.4,0,0,1-8.59-2.635,27.051,27.051,0,0,1-6.754-5.045,6.534,6.534,0,0,0-.614,4.48,17.23,17.23,0,0,0,2.955,5.393l-3.7-1.209a13.63,13.63,0,0,0,1.935,4.871,8,8,0,0,0,4.129,2.463l-3.021.537a11.141,11.141,0,0,0,2.874,3.465,8.287,8.287,0,0,0,3.234,1.484,5.558,5.558,0,0,1-3.234,2.287A25.791,25.791,0,0,1-2794.5,16178.5Z" transform="translate(2794.504 -16152.171)" fill="#ff8c00"/>
</svg>
